<svg width="32" height="25" viewBox="0 0 32 25" fill="none" xmlns="http://www.w3.org/2000/svg">
<path d="M21.3333 8.85417C21.3333 8.1635 20.9821 7.50112 20.357 7.01274C19.7319 6.52437 18.884 6.25 18 6.25H10.6667V11.4583H18C18.884 11.4583 19.7319 11.184 20.357 10.6956C20.9821 10.2072 21.3333 9.54483 21.3333 8.85417ZM18.6667 12.5H10.6667V18.75H18.6667C19.7275 18.75 20.7449 18.4208 21.4951 17.8347C22.2452 17.2487 22.6667 16.4538 22.6667 15.625C22.6667 14.7962 22.2452 14.0013 21.4951 13.4153C20.7449 12.8292 19.7275 12.5 18.6667 12.5Z" fill="#303C42"/>
<path d="M28 1.04166H3.99999C3.29275 1.04166 2.61447 1.26115 2.11438 1.65185C1.61428 2.04255 1.33333 2.57246 1.33333 3.12499V21.875C1.33333 22.4275 1.61428 22.9574 2.11438 23.3481C2.61447 23.7388 3.29275 23.9583 3.99999 23.9583H28C28.7072 23.9583 29.3855 23.7388 29.8856 23.3481C30.3857 22.9574 30.6667 22.4275 30.6667 21.875V3.12499C30.6667 2.57246 30.3857 2.04255 29.8856 1.65185C29.3855 1.26115 28.7072 1.04166 28 1.04166ZM18.6667 19.7917H10C9.82318 19.7917 9.65361 19.7368 9.52859 19.6391C9.40357 19.5414 9.33333 19.409 9.33333 19.2708V5.72916C9.33333 5.59102 9.40357 5.45855 9.52859 5.36087C9.65361 5.2632 9.82318 5.20832 10 5.20832H18C18.9829 5.209 19.9405 5.45212 20.7361 5.90302C21.5317 6.35393 22.1248 6.98959 22.4308 7.71935C22.7367 8.44911 22.7399 9.23571 22.4399 9.96698C22.1399 10.6982 21.552 11.3368 20.76 11.7917C21.8912 12.1681 22.8212 12.8384 23.3925 13.689C23.9638 14.5397 24.1413 15.5184 23.895 16.4595C23.6488 17.4007 22.9938 18.2464 22.0411 18.8536C21.0883 19.4608 19.8962 19.7922 18.6667 19.7917Z" fill="#303C42"/>
</svg>
