<svg width="19" height="19" viewBox="0 0 19 19" fill="none" xmlns="http://www.w3.org/2000/svg">
<g clip-path="url(#clip0_2041_288)">
<path d="M6.50005 18.5C8.15606 18.5 9.50009 17.156 9.50009 15.5V12.5H6.50005C4.84403 12.5 3.5 13.844 3.5 15.5C3.5 17.156 4.84403 18.5 6.50005 18.5Z" fill="#0ACF83"/>
<path d="M3.5 9.49999C3.5 7.84399 4.84403 6.49997 6.50005 6.49997H9.50009V12.4999H6.50005C4.84403 12.5 3.5 11.156 3.5 9.49999Z" fill="#A259FF"/>
<path d="M3.5 3.50002C3.5 1.84402 4.84403 0.5 6.50005 0.5H9.50009V6.49998H6.50005C4.84403 6.49998 3.5 5.15602 3.5 3.50002Z" fill="#F24E1E"/>
<path d="M9.49988 0.5H12.4999C14.1559 0.5 15.5 1.84402 15.5 3.50002C15.5 5.15602 14.1559 6.49998 12.4999 6.49998H9.49988V0.5Z" fill="#FF7262"/>
<path d="M15.5 9.49999C15.5 11.156 14.1559 12.5 12.4999 12.5C10.8439 12.5 9.49988 11.156 9.49988 9.49999C9.49988 7.84399 10.8439 6.49997 12.4999 6.49997C14.1559 6.49997 15.5 7.84399 15.5 9.49999Z" fill="#1ABCFE"/>
</g>
<defs>
<clipPath id="clip0_2041_288">
<rect width="18" height="18" fill="white" transform="translate(0.5 0.5)"/>
</clipPath>
</defs>
</svg>
