<svg width="19" height="19" viewBox="0 0 19 19" fill="none" xmlns="http://www.w3.org/2000/svg">
<g clip-path="url(#clip0_2041_283)">
<path fill-rule="evenodd" clip-rule="evenodd" d="M9.50023 0.875C7.36365 0.876109 5.29713 1.63284 3.67018 3.00989C2.04324 4.38694 0.961958 6.29451 0.619689 8.3915C0.27742 10.4885 0.696476 12.6382 1.80193 14.4561C2.90739 16.2741 4.62716 17.6418 6.65373 18.3147C7.10082 18.3977 7.26923 18.1206 7.26923 17.885C7.26923 17.6494 7.26028 16.9663 7.2573 16.2194C4.75358 16.7603 4.22452 15.1629 4.22452 15.1629C3.81617 14.1256 3.22601 13.8529 3.22601 13.8529C2.40932 13.2987 3.28712 13.3091 3.28712 13.3091C4.19174 13.3728 4.66715 14.2323 4.66715 14.2323C5.46894 15.6 6.77295 15.2044 7.28562 14.9732C7.3661 14.3938 7.60008 13.9996 7.8579 13.7759C5.8579 13.5506 3.75656 12.783 3.75656 9.35407C3.74416 8.46478 4.07605 7.60479 4.68354 6.95201C4.59114 6.72677 4.28264 5.81692 4.77146 4.58107C4.77146 4.58107 5.52706 4.34102 7.24688 5.49833C8.72203 5.09722 10.2784 5.09722 11.7536 5.49833C13.4719 4.34102 14.226 4.58107 14.226 4.58107C14.7163 5.81396 14.4078 6.72381 14.3154 6.95201C14.9248 7.60489 15.2574 8.46639 15.2439 9.35703C15.2439 12.7934 13.1381 13.5506 11.1351 13.7714C11.457 14.05 11.7446 14.5938 11.7446 15.4296C11.7446 16.6269 11.7342 17.5901 11.7342 17.885C11.7342 18.1236 11.8966 18.4022 12.3527 18.3147C14.3795 17.6417 16.0994 16.2738 17.2049 14.4555C18.3103 12.6372 18.7291 10.4872 18.3865 8.39004C18.0438 6.29285 16.962 4.38527 15.3345 3.00845C13.707 1.63164 11.64 0.875406 9.5032 0.875H9.50023Z" fill="white"/>
<path d="M6.52087 15.4814C6.52087 15.5541 6.43742 15.6163 6.33012 15.6178C6.22282 15.6193 6.13489 15.56 6.13489 15.4874C6.13489 15.4148 6.21834 15.3525 6.32564 15.351C6.43295 15.3496 6.52087 15.4074 6.52087 15.4814Z" fill="white"/>
<path d="M7.20642 15.3673C7.21983 15.44 7.14532 15.5155 7.03802 15.5333C6.93071 15.5511 6.83682 15.5081 6.82341 15.437C6.81 15.3659 6.88749 15.2888 6.99182 15.2695C7.09614 15.2503 7.19301 15.2947 7.20642 15.3673Z" fill="white"/>
<path d="M5.78463 15.4311C5.76228 15.5007 5.66093 15.5318 5.55959 15.5022C5.45825 15.4726 5.39119 15.3896 5.41056 15.3185C5.42993 15.2473 5.53277 15.2147 5.6356 15.2473C5.73843 15.2799 5.804 15.3585 5.78463 15.4311Z" fill="white"/>
<path d="M5.10959 15.1406C5.06041 15.1954 4.96056 15.1806 4.87859 15.1065C4.79662 15.0324 4.77724 14.9317 4.82642 14.8783C4.8756 14.825 4.97546 14.8398 5.0604 14.9124C5.14535 14.985 5.16175 15.0873 5.10959 15.1406V15.1406Z" fill="white"/>
<path d="M4.62815 14.6427C4.57301 14.6813 4.47912 14.6427 4.42696 14.5657C4.41253 14.5519 4.40106 14.5353 4.39323 14.517C4.38539 14.4986 4.38135 14.4789 4.38135 14.459C4.38135 14.4391 4.38539 14.4194 4.39323 14.401C4.40106 14.3827 4.41253 14.3661 4.42696 14.3523C4.4821 14.3153 4.57599 14.3523 4.62815 14.4279C4.68031 14.5034 4.6818 14.6042 4.62815 14.6427V14.6427Z" fill="white"/>
<path d="M4.27342 14.1285C4.24256 14.144 4.20725 14.1483 4.17354 14.1407C4.13983 14.1332 4.10981 14.1142 4.08862 14.087C4.0305 14.0248 4.01857 13.9389 4.06328 13.9003C4.10799 13.8618 4.18847 13.8796 4.2466 13.9418C4.30472 14.0041 4.31813 14.09 4.27342 14.1285Z" fill="white"/>
<path d="M3.9083 13.724C3.88892 13.7685 3.81739 13.7818 3.75927 13.7507C3.70114 13.7196 3.65793 13.6618 3.67879 13.6158C3.69966 13.5699 3.7697 13.558 3.82782 13.5892C3.88595 13.6203 3.93065 13.6795 3.9083 13.724Z" fill="white"/>
</g>
<defs>
<clipPath id="clip0_2041_283">
<rect width="18" height="18" fill="white" transform="translate(0.5 0.5)"/>
</clipPath>
</defs>
</svg>
