<svg width="19" height="19" viewBox="0 0 19 19" fill="none" xmlns="http://www.w3.org/2000/svg">
<path d="M15.3848 4.69609C15.3848 4.09786 14.8999 3.61483 14.3039 3.61483C13.7079 3.61483 13.2227 4.09786 13.2227 4.69609C13.2227 5.29211 13.7079 5.77515 14.3039 5.77515C14.8999 5.77515 15.3848 5.29211 15.3848 4.69609Z" fill="url(#paint0_linear_2041_292)"/>
<path d="M16.8249 13.1363C16.7849 14.0139 16.6381 14.4907 16.5163 14.8073C16.3526 15.2272 16.1573 15.5275 15.8406 15.8424C15.5275 16.1573 15.2273 16.3521 14.8074 16.514C14.4907 16.6376 14.0121 16.7849 13.1346 16.8267C12.1858 16.8685 11.9047 16.8774 9.49888 16.8774C7.09528 16.8774 6.81193 16.8685 5.8632 16.8267C4.98566 16.7849 4.5093 16.6376 4.19259 16.514C3.7705 16.3521 3.47251 16.1573 3.1576 15.8424C2.84046 15.5275 2.64521 15.2272 2.48375 14.8073C2.36186 14.4907 2.21288 14.0139 2.17505 13.1363C2.12881 12.1876 2.12034 11.902 2.12034 9.50109C2.12034 7.09525 2.12881 6.8119 2.17505 5.86317C2.21288 4.98563 2.36186 4.50927 2.48375 4.18989C2.64521 3.77047 2.84046 3.47201 3.1576 3.1571C3.47251 2.84266 3.7705 2.64738 4.19259 2.48372C4.5093 2.35963 4.98566 2.21461 5.8632 2.17282C6.81193 2.13099 7.09528 2.12031 9.49888 2.12031C11.9047 2.12031 12.1858 2.13099 13.1346 2.17282C14.0121 2.21461 14.4907 2.35963 14.8074 2.48372C15.2273 2.64738 15.5275 2.84266 15.8406 3.1571C16.1573 3.47201 16.3526 3.77047 16.5163 4.18989C16.6381 4.50927 16.7849 4.98563 16.8249 5.86317C16.869 6.8119 16.8796 7.09525 16.8796 9.50109C16.8796 11.902 16.869 12.1876 16.8249 13.1363ZM18.4453 5.78935C18.4013 4.83038 18.25 4.17521 18.0254 3.60458C17.7968 3.01256 17.4903 2.51084 16.9886 2.00912C16.4891 1.50964 15.9874 1.20318 15.3954 0.971899C14.8225 0.749495 14.1696 0.596478 13.2102 0.55468C12.2508 0.508411 11.9443 0.499969 9.49888 0.499969C7.05568 0.499969 6.74701 0.508411 5.78761 0.55468C4.83041 0.596478 4.17791 0.749495 3.60237 0.971899C3.01259 1.20318 2.51087 1.50964 2.01139 2.00912C1.50967 2.51084 1.2032 3.01256 0.972361 3.60458C0.749958 4.17521 0.598742 4.83038 0.552473 5.78935C0.510675 6.74875 0.5 7.05565 0.5 9.50109C0.5 11.9443 0.510675 12.2507 0.552473 13.2101C0.598742 14.1673 0.749958 14.822 0.972361 15.3954C1.2032 15.9851 1.50967 16.4891 2.01139 16.9886C2.51087 17.4881 3.01259 17.7968 3.60237 18.0276C4.17791 18.25 4.83041 18.4012 5.78761 18.4453C6.74701 18.4893 7.05568 18.5 9.49888 18.5C11.9443 18.5 12.2508 18.4893 13.2102 18.4453C14.1696 18.4012 14.8225 18.25 15.3954 18.0276C15.9874 17.7968 16.4891 17.4881 16.9886 16.9886C17.4903 16.4891 17.7968 15.9851 18.0254 15.3954C18.25 14.822 18.4013 14.1673 18.4453 13.2101C18.4893 12.2507 18.5 11.9443 18.5 9.50109C18.5 7.05565 18.4893 6.74875 18.4453 5.78935Z" fill="url(#paint1_linear_2041_292)"/>
<path d="M9.49887 12.4985C7.84294 12.4985 6.49925 11.157 6.49925 9.50106C6.49925 7.84246 7.84294 6.49923 9.49887 6.49923C11.1553 6.49923 12.5007 7.84246 12.5007 9.50106C12.5007 11.157 11.1553 12.4985 9.49887 12.4985ZM9.49887 4.87666C6.94625 4.87666 4.87891 6.94844 4.87891 9.50106C4.87891 12.0515 6.94625 14.1211 9.49887 14.1211C12.0515 14.1211 14.1211 12.0515 14.1211 9.50106C14.1211 6.94844 12.0515 4.87666 9.49887 4.87666Z" fill="url(#paint2_linear_2041_292)"/>
<defs>
<linearGradient id="paint0_linear_2041_292" x1="0.662407" y1="18.3139" x2="17.0008" y2="1.97551" gradientUnits="userSpaceOnUse">
<stop stop-color="#FFD521"/>
<stop offset="0.05" stop-color="#FFD521"/>
<stop offset="0.501119" stop-color="#F50000"/>
<stop offset="0.95" stop-color="#B900B4"/>
<stop offset="0.950079" stop-color="#B900B4"/>
<stop offset="1" stop-color="#B900B4"/>
</linearGradient>
<linearGradient id="paint1_linear_2041_292" x1="0.662358" y1="18.3363" x2="17.0142" y2="1.98444" gradientUnits="userSpaceOnUse">
<stop stop-color="#FFD521"/>
<stop offset="0.05" stop-color="#FFD521"/>
<stop offset="0.501119" stop-color="#F50000"/>
<stop offset="0.95" stop-color="#B900B4"/>
<stop offset="0.950079" stop-color="#B900B4"/>
<stop offset="1" stop-color="#B900B4"/>
</linearGradient>
<linearGradient id="paint2_linear_2041_292" x1="0.666587" y1="18.3367" x2="17.0145" y2="1.98881" gradientUnits="userSpaceOnUse">
<stop stop-color="#FFD521"/>
<stop offset="0.05" stop-color="#FFD521"/>
<stop offset="0.501119" stop-color="#F50000"/>
<stop offset="0.95" stop-color="#B900B4"/>
<stop offset="0.950079" stop-color="#B900B4"/>
<stop offset="1" stop-color="#B900B4"/>
</linearGradient>
</defs>
</svg>
