<svg width="44" height="40" viewBox="0 0 44 40" fill="none" xmlns="http://www.w3.org/2000/svg">
<path fill-rule="evenodd" clip-rule="evenodd" d="M10.4074 0.140775C9.97526 -0.0469251 9.46664 -0.0469251 9.03452 0.140775L0.854255 3.69378C0.834771 3.70218 0.815431 3.71093 0.796293 3.72005C0.641201 3.79398 0.5045 3.88938 0.390045 4.0007C0.330155 4.059 0.276367 4.12165 0.229226 4.1879C0.0821357 4.39468 0 4.63636 0 4.88888V30.6665C0 31.1483 0.299103 31.5925 0.782393 31.8288L17.1308 39.817C17.2062 39.8553 17.2851 39.8878 17.3663 39.9143C17.4468 39.9408 17.5294 39.961 17.6132 39.975C17.9585 40.0338 18.3289 39.9903 18.6596 39.8285L35.0315 31.8288C35.515 31.5925 35.814 31.1483 35.814 30.6665V22.6018L43.1516 19.4148C43.6716 19.189 44 18.7273 44 18.2223V9.33331C44 8.92974 43.7902 8.55388 43.4408 8.30388C43.3677 8.25161 43.2886 8.20486 43.2037 8.16448C43.1847 8.15536 43.1654 8.14661 43.1458 8.13823L34.9656 4.58521C34.5334 4.39751 34.0248 4.39751 33.5929 4.58521L25.4126 8.13818C25.3931 8.14656 25.3738 8.15533 25.3545 8.16448C25.1815 8.24691 25.0316 8.35601 24.9099 8.48416C24.8149 8.58396 24.7369 8.69528 24.6791 8.81458C24.6278 8.91981 24.5921 9.03124 24.5734 9.14631C24.5634 9.20771 24.5582 9.27019 24.5582 9.33331V17.4425L19.4418 19.9423V4.88888C19.4418 4.55661 19.3019 4.25273 19.0706 4.01928C19.0107 3.95875 18.9445 3.90275 18.8723 3.85203C18.7779 3.78575 18.6746 3.729 18.5638 3.6834L10.4074 0.140775ZM26.1353 19.7313L31.0065 21.847L17.8647 28.2685L12.9935 26.1528L26.1353 19.7313ZM32.7442 19.6203L27.6281 17.3983V11.4907L32.7442 13.7129V19.6203ZM35.814 19.6203L40.9304 17.3983V11.4907L35.814 13.7129V19.6203ZM16.3722 21.4425V7.04626L11.2558 9.26846V23.9423L16.3722 21.4425ZM14.3156 29.7085L15.8364 30.369C16.1834 30.5323 16.3722 30.6423 16.3722 30.6943V36.3868L3.06977 29.8868V7.04626L8.18605 9.26846V26.2215C8.18605 26.2533 8.18735 26.285 8.18985 26.3163C8.22787 26.784 8.54703 27.203 9.03452 27.4148C9.03452 27.4148 11.3316 28.4645 13.3503 29.3055C13.6973 29.45 14.0201 29.5845 14.3156 29.7085ZM19.4418 30.5575L32.7442 24.0575V29.8868L19.4418 36.3868V30.5575ZM9.72094 6.95371L4.96698 4.88888L9.72094 2.82405L14.4748 4.88888L9.72094 6.95371ZM39.033 9.33331L34.2792 7.26848L29.5252 9.33331L34.2792 11.3981L39.033 9.33331Z" fill="white"/>
</svg>
