<svg width="16" height="209" viewBox="0 0 16 209" fill="none" xmlns="http://www.w3.org/2000/svg">
<path d="M8 -1.90735e-06C3.58172 -1.90735e-06 -1.90735e-06 3.58172 -1.90735e-06 8C-1.90735e-06 12.4183 3.58172 16 8 16C12.4183 16 16 12.4183 16 8C16 3.58172 12.4183 -1.90735e-06 8 -1.90735e-06ZM8 193C3.58172 193 -1.90735e-06 196.582 -1.90735e-06 201C-1.90735e-06 205.418 3.58172 209 8 209C12.4183 209 16 205.418 16 201C16 196.582 12.4183 193 8 193ZM6.5 8L6.5 201H9.5L9.5 8H6.5Z" fill="#9F9999"/>
</svg>
