<svg width="39" height="37" viewBox="0 0 39 37" fill="none" xmlns="http://www.w3.org/2000/svg">
<path d="M7.33525 25.1954C7.67812 25.3188 8.021 25.4438 8.372 25.5513C8.25825 26.0464 8.15913 26.5344 8.0665 27.0383C7.267 31.6226 7.891 35.2555 9.8865 36.5029C11.9438 37.7908 15.4018 36.4694 18.7688 33.2734C19.0353 33.018 19.3017 32.7537 19.5682 32.4718C19.903 32.8277 20.254 33.1659 20.6034 33.4954C23.8631 36.5346 27.0855 37.7643 29.0745 36.5187C31.1318 35.2308 31.8013 31.3248 30.9335 26.5679C30.8631 26.1947 30.7868 25.8229 30.7044 25.4527C30.9481 25.3787 31.1838 25.2958 31.421 25.213C35.8166 23.6362 39 21.0833 39 18.4652C39 15.9634 35.9986 13.5356 31.8549 11.9905C31.4459 11.8429 31.0347 11.7008 30.6215 11.5677C30.6898 11.2629 30.7515 10.9563 30.8116 10.6515C31.7493 5.72895 31.1318 1.7754 29.0518 0.469879C27.0481 -0.777498 23.7803 0.51921 20.475 3.64118C20.1468 3.94597 19.8283 4.26839 19.5228 4.5908C19.3156 4.37469 19.1048 4.16265 18.8906 3.95478C15.4245 0.617872 11.9519 -0.786307 9.87187 0.528019C7.87637 1.78421 7.28163 5.50872 8.12013 10.1635C8.20463 10.6268 8.29562 11.0796 8.40125 11.543C7.91375 11.691 7.43437 11.8566 6.98425 12.031C2.91687 13.5585 0 15.9705 0 18.4652C0 21.0428 3.107 23.6256 7.33525 25.1954ZM17.6946 31.9239C16.4387 33.1721 14.9825 34.1604 13.3981 34.8397C12.5531 35.2766 11.5781 35.3189 10.7087 34.9472C9.49813 34.1878 8.99438 31.272 9.68013 27.3484C9.76463 26.8868 9.85563 26.4234 9.96125 25.9689C11.6675 26.3653 13.3884 26.6384 15.1336 26.7775C16.1405 28.3238 17.2398 29.7969 18.4242 31.1874C18.1805 31.4429 17.9367 31.6913 17.693 31.9221L17.6946 31.9239ZM27.3682 16.4162C27.0127 15.6874 26.6443 14.9661 26.2633 14.2527C25.8895 13.5515 25.5011 12.8573 25.0981 12.172C26.325 12.3376 27.4983 12.5596 28.5951 12.8327C28.2441 14.0496 27.8346 15.2457 27.3682 16.4162ZM27.3829 20.5283C27.8704 21.7264 28.2978 22.9403 28.6699 24.1877C27.4885 24.4766 26.2941 24.7004 25.09 24.8483C25.9114 23.4449 26.6764 22.0035 27.3829 20.5283ZM26.5021 18.474C25.4799 20.7542 24.3148 22.9558 23.0149 25.0633C21.8806 25.1549 20.6992 25.1954 19.5033 25.1954C18.3073 25.1954 17.1503 25.1549 16.0306 25.0791C14.7086 22.9874 13.5347 20.7899 12.519 18.5057H12.5158C13.5231 16.2246 14.6895 14.03 16.0046 11.9412C18.3328 11.7543 20.6705 11.7543 22.9986 11.9412C23.6454 12.9824 24.2629 14.0466 24.8495 15.1371C25.4345 16.2292 25.9857 17.3421 26.5021 18.474ZM12.727 14.2685C12.3533 14.9698 11.9876 15.6868 11.6447 16.4145C11.1847 15.2369 10.778 14.0356 10.426 12.815C11.5229 12.5508 12.688 12.3358 13.8986 12.1702C13.4973 12.8556 13.1007 13.5568 12.727 14.2685ZM11.6464 20.5935C11.9974 21.3212 12.3549 22.04 12.7351 22.75C13.1235 23.4688 13.52 24.1877 13.9393 24.8889C12.752 24.7486 11.5723 24.5416 10.4049 24.2687C10.7396 23.0795 11.1589 21.8497 11.6464 20.5935ZM19.5618 29.9154C18.7464 28.9593 17.9762 27.9591 17.2542 26.9185C18.7747 26.9859 20.2971 26.983 21.8172 26.9097C21.117 27.9558 20.364 28.9592 19.5618 29.9154ZM29.5181 32.396C29.4824 32.8969 29.3524 33.3845 29.1361 33.8287C28.9197 34.273 28.6217 34.6644 28.2604 34.9789C27.0498 35.7382 24.4676 34.7481 21.6791 32.1547C21.3511 31.8451 21.0287 31.5285 20.7123 31.205C21.8762 29.8116 22.9502 28.3329 23.9265 26.7793C25.6747 26.6222 27.4107 26.3325 29.1216 25.9125C29.198 26.2508 29.2663 26.589 29.328 26.9203C29.7 28.7175 29.7644 30.5735 29.5181 32.396ZM30.1795 13.2696C30.576 13.3929 30.9562 13.5251 31.3219 13.6572C34.8709 14.9786 37.362 16.9448 37.362 18.4476C37.362 20.0667 34.7035 22.1563 30.9026 23.5182C30.6898 23.5922 30.4769 23.6662 30.2559 23.7331C29.7189 21.9311 29.0701 20.1705 28.314 18.4635C29.0453 16.7792 29.6628 15.0437 30.1795 13.2696ZM21.5475 4.97841C24.3831 2.30395 27.0254 1.25566 28.2295 2.0062C29.5165 2.80783 30.0121 6.04431 29.2045 10.2974C29.1537 10.5747 29.0951 10.8502 29.029 11.1237C27.3398 10.7092 25.6271 10.4167 23.9021 10.248C22.9132 8.70779 21.829 7.2421 20.657 5.86108C20.9544 5.55629 21.2436 5.26735 21.5475 4.97841ZM19.5163 7.12608C20.3158 8.0669 21.0698 9.05705 21.7701 10.0807C20.2602 10.0067 18.7479 10.0067 17.238 10.0807C17.9839 9.01652 18.7541 8.02637 19.5163 7.12608ZM10.6795 2.06434C11.96 1.25566 14.8005 2.41142 17.7937 5.28496C17.9839 5.46643 18.174 5.66552 18.3722 5.86285C17.1929 7.24232 16.1011 8.70682 15.1044 10.2463C13.3828 10.4132 11.673 10.7004 9.98563 11.1061C9.8865 10.685 9.80363 10.2551 9.71913 9.82521C9.0025 5.82761 9.47537 2.81488 10.6795 2.06434ZM7.51887 13.7065C7.95275 13.5409 8.39475 13.3929 8.83675 13.252C9.35462 15.044 9.97773 16.7982 10.7022 18.504C9.971 20.2306 9.33887 22.0136 8.814 23.83L8.81238 23.8318C8.49503 23.7336 8.18021 23.6261 7.86825 23.5094C6.2465 22.9561 4.40213 22.0805 3.06963 20.9336C2.68925 20.6483 2.36623 20.2823 2.12015 19.8577C1.87407 19.4331 1.71004 18.9588 1.638 18.4635C1.638 16.9518 4.04462 15.0191 7.51887 13.7065Z" fill="#53C1DE"/>
</svg>
