<svg width="29" height="21" viewBox="0 0 29 21" fill="none" xmlns="http://www.w3.org/2000/svg">
<path d="M23.925 6.15105C22.8376 5.69993 21.8777 4.88879 21.1555 3.81066C20.3595 2.60942 19.346 1.64341 18.1924 0.9865C17.0389 0.329594 15.7759 -0.000794375 14.5 0.0206088C12.7837 -0.125796 11.0846 0.511821 9.74111 1.80648C8.39757 3.10115 7.50816 4.95786 7.25 7.00687C7.75848 5.98206 8.52376 5.17798 9.43572 4.71034C10.3477 4.2427 11.3593 4.13562 12.325 4.40449C13.4106 4.86874 14.3689 5.6846 15.0945 6.76235C15.8948 7.95399 16.9103 8.91002 18.0636 9.55771C19.2169 10.2054 20.4777 10.5277 21.75 10.5C23.4663 10.6464 25.1654 10.0088 26.5089 8.71413C27.8524 7.41946 28.7418 5.56275 29 3.51374C28.5008 4.5508 27.7379 5.36703 26.8241 5.84191C25.9103 6.3168 24.8939 6.42518 23.925 6.15105ZM5.075 14.8489C6.16242 15.3001 7.12228 16.1112 7.8445 17.1893C8.64048 18.3906 9.65402 19.3566 10.8076 20.0135C11.9611 20.6704 13.2241 21.0008 14.5 20.9794C16.2163 21.1258 17.9154 20.4882 19.2589 19.1935C20.6024 17.8989 21.4918 16.0421 21.75 13.9931C21.2415 15.0179 20.4762 15.822 19.5643 16.2897C18.6523 16.7573 17.6407 16.8644 16.675 16.5955C15.5894 16.1313 14.6311 15.3154 13.9055 14.2376C13.103 13.049 12.0871 12.095 10.9343 11.4476C9.78151 10.8002 8.5218 10.4762 7.25 10.5C5.53373 10.3536 3.83465 10.9912 2.49111 12.2859C1.14757 13.5805 0.258161 15.4373 0 17.4863C0.499245 16.4492 1.26209 15.633 2.17592 15.1581C3.08975 14.6832 4.10612 14.5748 5.075 14.8489Z" fill="white"/>
<path d="M23.925 6.15105C22.8376 5.69993 21.8777 4.88879 21.1555 3.81066C20.3595 2.60942 19.346 1.64341 18.1924 0.9865C17.0389 0.329594 15.7759 -0.000794375 14.5 0.0206088C12.7837 -0.125796 11.0846 0.511821 9.74111 1.80648C8.39757 3.10115 7.50816 4.95786 7.25 7.00687C7.75848 5.98206 8.52376 5.17798 9.43572 4.71034C10.3477 4.2427 11.3593 4.13562 12.325 4.40449C13.4106 4.86874 14.3689 5.6846 15.0945 6.76235C15.8948 7.95399 16.9103 8.91002 18.0636 9.55771C19.2169 10.2054 20.4777 10.5277 21.75 10.5C23.4663 10.6464 25.1654 10.0088 26.5089 8.71413C27.8524 7.41946 28.7418 5.56275 29 3.51374C28.5008 4.5508 27.7379 5.36703 26.8241 5.84191C25.9103 6.3168 24.8939 6.42518 23.925 6.15105ZM5.075 14.8489C6.16242 15.3001 7.12228 16.1112 7.8445 17.1893C8.64048 18.3906 9.65402 19.3566 10.8076 20.0135C11.9611 20.6704 13.2241 21.0008 14.5 20.9794C16.2163 21.1258 17.9154 20.4882 19.2589 19.1935C20.6024 17.8989 21.4918 16.0421 21.75 13.9931C21.2415 15.0179 20.4762 15.822 19.5643 16.2897C18.6523 16.7573 17.6407 16.8644 16.675 16.5955C15.5894 16.1313 14.6311 15.3154 13.9055 14.2376C13.103 13.049 12.0871 12.095 10.9343 11.4476C9.78151 10.8002 8.5218 10.4762 7.25 10.5C5.53373 10.3536 3.83465 10.9912 2.49111 12.2859C1.14757 13.5805 0.258161 15.4373 0 17.4863C0.499245 16.4492 1.26209 15.633 2.17592 15.1581C3.08975 14.6832 4.10612 14.5748 5.075 14.8489Z" fill="black" fill-opacity="0.2"/>
</svg>
